<svg xmlns="http://www.w3.org/2000/svg" viewBox="0 0 100 100" width="15px" height="15px"><path fill="#fef6aa" d="M39.714,87C35.512,87,33,79.606,33,72.459c0-2.703,1.254-6.474,2.708-11.997	c2.152-8.184,4.81-14.296,4.996-23.462h18.594c0.186,9.165,2.844,15.278,4.996,23.462c1.452,5.523,2.708,9.294,2.708,11.997	c0,6.994-2.566,14.541-6.714,14.541H39.714z"/><path fill="#eaa871" d="M60.666,86H39.334C36.492,86,34,79.77,34,72.666c2.198,6.048,4.26,7.834,7.5,7.834	c1.362,0,1.848-11.048,3-11c1.588,0.066,3.09,11,6,11s3.838-6.676,5-5c1.488,2.148,2.276,4.5,4,4.5c1.588,0,5-2.5,7.5-10	C66.998,76.978,63.458,86,60.666,86z"/><path fill="none" stroke="#1f212b" stroke-linecap="round" stroke-miterlimit="10" d="M64.5,76.58c0.726-1.099,1.417-2.45,2-4.08"/><path fill="none" stroke="#1f212b" stroke-linecap="round" stroke-miterlimit="10" d="M33.5,72.5c2.198,6.048,4.76,8,8,8	c1.362,0,1.848-11.048,3-11c1.588,0.066,3.09,11,6,11s3.838-6.676,5-5c1.488,2.148,2.276,5,4,5c0.622,0,1.518-0.351,2.5-1.121"/><path fill="none" stroke="#1f212b" stroke-linecap="round" stroke-linejoin="round" stroke-miterlimit="10" stroke-width="2" d="M39.714,87C35.512,87,33,79.606,33,72.459c0-2.703,1.254-6.474,2.708-11.997c2.152-8.184,4.81-14.296,4.996-23.462h18.594	c0.186,9.165,2.844,15.278,4.996,23.462c1.452,5.523,2.708,9.294,2.708,11.997c0,6.994-2.566,14.541-6.714,14.541H39.714z"/><path fill="#b77748" d="M50.002,48C19.42,48,15,44.026,15,40.692C15,25.974,29.598,15,50,15s34,10.974,34,25.692 C84,44.026,80.582,48,50.002,48z"/><path fill="none" stroke="#1f212b" stroke-linecap="round" stroke-linejoin="round" stroke-miterlimit="10" stroke-width="2" d="M50.002,48C19.42,48,15,44.026,15,40.692C15,25.974,29.598,15,50,15s34,10.974,34,25.692C84,44.026,80.582,48,50.002,48z"/></svg>