<svg xmlns="http://www.w3.org/2000/svg" viewBox="0 0 128 128" width="15px" height="15px"><path fill="#ff5576" d="M124,99.1c-33.1,33.1-86.9,33.1-120,0l5-0.5l0.8-6.3l49.7-58.2c2.4-2.8,6.7-2.8,9.1,0l49.8,58.3l0.6,7.1 L124,99.1z"/><path fill="#adf9d2" d="M111.5,98.3C98,109.1,81.5,115,64,115s-34-5.9-47.5-16.7l-6.8-5.9L4,99.1c33.1,33.1,86.9,33.1,120,0 l-5.7-6.7L111.5,98.3z"/><path fill="#444b54" d="M64,127c-23.5,0-45.5-9.1-62.1-25.7c-1.2-1.2-1.2-3.1,0-4.2C3,95.9,5,95.9,6.1,97c15.5,15.5,36,24,57.9,24 s42.4-8.5,57.9-24c1.2-1.2,3.1-1.2,4.2,0c1.2,1.2,1.2,3.1,0,4.2C109.5,117.9,87.5,127,64,127z"/><circle cx="68.8" cy="59.6" r="4" fill="#444b54"/><circle cx="43.8" cy="79.6" r="4" fill="#444b54"/><circle cx="83.8" cy="89.6" r="4" fill="#444b54"/><path fill="#fff" d="M50.1,62c-0.7,0-1.4-0.2-1.9-0.7c-1.3-1.1-1.4-3-0.3-4.2l13.9-16.3c1.1-1.3,3-1.4,4.2-0.3 c1.3,1.1,1.4,3,0.3,4.2L52.4,60.9C51.8,61.6,50.9,62,50.1,62z"/></svg>